<svg xmlns="http://www.w3.org/2000/svg" viewBox="0 0 85.48 75.17"><path d="M366.89,275.56l-19.22-33a4.52,4.52,0,0,0-3.9-2.24H305.54a4.51,4.51,0,0,0-3.91,2.26l-19,32.93a4.54,4.54,0,0,0,0,4.47l18.74,33.17a4.53,4.53,0,0,0,3.92,2.3l38.65,0a4.52,4.52,0,0,0,3.92-2.26l19.07-33.18A4.51,4.51,0,0,0,366.89,275.56ZM307.22,259h35.1a2.87,2.87,0,1,1,0,5.73h-35.1a2.87,2.87,0,1,1,0-5.73Zm38,35.23a2.68,2.68,0,0,1-2.68,2.68H333l12.24-14.11Zm0-16.89c0,1-1.53,5.15-12.3,7.38a2.49,2.49,0,0,0-1.5,3.9c2.74,3.73,2.14,6.35-6.51,8.23a2.78,2.78,0,0,1-.58.06H307.1a2.75,2.75,0,0,1-2.75-2.75v-4.46h9.28a2.13,2.13,0,1,0,0-2.14h-9.28v-4.29h16.47a2.09,2.09,0,0,0,1.82,1.05,2.13,2.13,0,1,0,0-4.25,2.09,2.09,0,0,0-1.82,1.05H304.35v-4.29h9.28a2.13,2.13,0,1,0,0-2.14h-9.28v-4.46a2.75,2.75,0,0,1,2.75-2.75h35.33a2.75,2.75,0,0,1,2.76,2.75Z" transform="translate(-282.03 -240.35)"/></svg>