<svg xmlns="http://www.w3.org/2000/svg" viewBox="0 0 46.25 53.92"><path d="M324.43,210.09h-.5v37.43a6,6,0,0,1-6,5.95H287.83v.7a3.19,3.19,0,0,0,3.2,3.19h33.4a3.19,3.19,0,0,0,3.19-3.19V213.28A3.19,3.19,0,0,0,324.43,210.09Z" transform="translate(-281.37 -203.44)"/><path d="M318,203.44h-33.4a3.19,3.19,0,0,0-3.2,3.19v12.56H292a2.43,2.43,0,0,1,2.11-1.22,2.47,2.47,0,1,1-2.11,3.71H281.37v5h19a2.47,2.47,0,1,1,0,2.49h-19v5H292a2.43,2.43,0,0,1,2.11-1.22,2.47,2.47,0,1,1-2.11,3.7H281.37v10.93a3.19,3.19,0,0,0,3.2,3.19H318a3.19,3.19,0,0,0,3.19-3.19V206.63A3.19,3.19,0,0,0,318,203.44Z" transform="translate(-281.37 -203.44)"/></svg>