<svg xmlns="http://www.w3.org/2000/svg" viewBox="0 0 85.48 75.17"><path d="M367.59,195.18l-19.22-33a4.52,4.52,0,0,0-3.9-2.24H306.24a4.49,4.49,0,0,0-3.91,2.26l-19,32.93a4.54,4.54,0,0,0,0,4.47l18.74,33.17a4.51,4.51,0,0,0,3.92,2.3l38.65,0a4.52,4.52,0,0,0,3.92-2.26l19.07-33.17A4.53,4.53,0,0,0,367.59,195.18ZM319.14,179v-.79a2,2,0,0,1,0-.34,2.16,2.16,0,0,1,2.18-1.44h1.37c0-1.64.9-1.64,1.68-1.64h2.11c.78,0,1.62,0,1.69,1.64h1.37a2.14,2.14,0,0,1,2.17,1.44,1.32,1.32,0,0,1,0,.34v2.27a1.44,1.44,0,0,1-.13.58h0c0,.08-.08.16-.13.24l0,0a1.57,1.57,0,0,1-.17.21h0a2.25,2.25,0,0,1-.41.34l-.07,0-.17.08-.18.08-.15.05a1,1,0,0,1-.25.06l-.13,0a2.69,2.69,0,0,1-.4,0h-8.22a2.83,2.83,0,0,1-.41,0l-.13,0-.24-.06-.16-.05-.18-.08-.16-.08-.07,0a1.73,1.73,0,0,1-.41-.34h0l-.17-.21,0,0c0-.08-.09-.16-.13-.24h0a1.44,1.44,0,0,1-.13-.58Zm2.22,5.32h8.22a4.13,4.13,0,0,0,4.17-3.26h3.88A2.36,2.36,0,0,1,340,183.4V214a2.36,2.36,0,0,1-2.32,2.39H313.31A2.36,2.36,0,0,1,311,214v-7.87h7.59a1.78,1.78,0,0,0,1.54.91,1.85,1.85,0,0,0,0-3.69,1.77,1.77,0,0,0-1.54.92H311v-3.72h13.65a1.78,1.78,0,0,0,1.54.91,1.85,1.85,0,0,0,0-3.69,1.77,1.77,0,0,0-1.54.92H311V195h7.59a1.78,1.78,0,0,0,1.54.91,1.85,1.85,0,0,0,0-3.69,1.77,1.77,0,0,0-1.54.92H311V183.4a2.36,2.36,0,0,1,2.32-2.39h3.87A4.14,4.14,0,0,0,321.36,184.27Zm22.55,31.21a4.8,4.8,0,0,1-4.74,4.87H311.76a4.81,4.81,0,0,1-4.74-4.87v-33.1a4.81,4.81,0,0,1,4.74-4.87h5.44a3.5,3.5,0,0,0-.07.65V179h-3.82A4.4,4.4,0,0,0,309,183.4V214a4.41,4.41,0,0,0,4.34,4.46h24.32A4.4,4.4,0,0,0,342,214V183.4a4.39,4.39,0,0,0-4.33-4.45H333.8v-.79a3.49,3.49,0,0,0-.06-.65h5.43a4.8,4.8,0,0,1,4.74,4.87Z" transform="translate(-282.73 -159.96)"/></svg>