<svg xmlns="http://www.w3.org/2000/svg" viewBox="0 0 60.4 64"><path d="M260.64,139.58v8a9.55,9.55,0,0,0-.71.84c.25.13.48.27.71.42h0a11.59,11.59,0,0,1,2.54,2.14h0a11.89,11.89,0,0,1,2.43,11.82,9.13,9.13,0,1,0,1.67-18.1,9.08,9.08,0,0,0-4.1,1v-6.12a2.51,2.51,0,1,0-2.54,0Z" transform="translate(-223.97 -126.4)" style="fill:#000"/><path d="M253,131.08v16c.41,0,.84-.07,1.27-.07s.85,0,1.27.07v-16a2.52,2.52,0,1,0-2.54,0Z" transform="translate(-223.97 -126.4)" style="fill:#000"/><path d="M276.43,165.57h-12.2a12.2,12.2,0,0,1-2,2.31h1.21a10.77,10.77,0,0,1,10.76,10.75v3.84a10.48,10.48,0,0,1-.39,2.81h2.61a8,8,0,0,0,7.94-7.94v-3.83A8,8,0,0,0,276.43,165.57Z" transform="translate(-223.97 -126.4)" style="fill:#000"/><path d="M258.63,150.94a9,9,0,0,0-3.61-1.06l-.72,0q-.37,0-.72,0l-.55.06h0a9.11,9.11,0,0,0-4.23,1.75l-.06.05a9.09,9.09,0,0,0-1.62,1.6l-.07.09a7.81,7.81,0,0,0-.55.82,1.4,1.4,0,0,0-.1.16,9.14,9.14,0,0,0-.87,2c0,.09-.05.18-.07.27a7.63,7.63,0,0,0-.17.83c0,.1,0,.2,0,.31a10.39,10.39,0,0,0-.07,1.13h0a7.38,7.38,0,0,0,0,.82c0,.12,0,.24,0,.37l.06.39c0,.16.06.32.1.48s0,.11,0,.16a9.13,9.13,0,0,0,5.61,6.3l.07,0a9,9,0,0,0,1.15.35h0a8.94,8.94,0,0,0,4,0h0a8.52,8.52,0,0,0,1.15-.35l.08,0a9.1,9.1,0,0,0,5.4-5.61h0v0c.06-.17.11-.35.16-.53a2.68,2.68,0,0,1,.07-.27c0-.15.07-.31.09-.46s.05-.29.07-.43,0-.24.05-.36c0-.28,0-.56,0-.84a8.77,8.77,0,0,0-.08-1.15c0-.11,0-.21-.05-.32-.05-.29-.11-.57-.18-.85a2.68,2.68,0,0,0-.07-.27,9,9,0,0,0-.37-1l-.09-.18a6.21,6.21,0,0,0-.42-.81l-.16-.26a6.67,6.67,0,0,0-.54-.77l-.09-.12a9.35,9.35,0,0,0-.74-.8l-.19-.17c-.21-.2-.43-.38-.66-.56l-.23-.16a7,7,0,0,0-.93-.59Z" transform="translate(-223.97 -126.4)" style="fill:#000"/><path d="M234.39,178.63a10.76,10.76,0,0,1,10.75-10.75h1.21a11.8,11.8,0,0,1-2-2.31H231.91a7.94,7.94,0,0,0-7.94,7.94v3.83a7.94,7.94,0,0,0,7.94,7.94h2.86a10.89,10.89,0,0,1-.38-2.81Z" transform="translate(-223.97 -126.4)" style="fill:#000"/><path d="M241.06,163a9.31,9.31,0,0,0,1.91-.2A11.94,11.94,0,0,1,245.41,151h0a11.83,11.83,0,0,1,2.54-2.14h0l.53-.32c-.16-.23-.35-.45-.53-.66v-8.31a2.52,2.52,0,1,0-2.54,0v6.26a9,9,0,0,0-4.35-1.12,9.13,9.13,0,0,0,0,18.26Z" transform="translate(-223.97 -126.4)" style="fill:#000"/><path d="M267.89,172.05a8,8,0,0,0-4.44-1.35H245.14a7.32,7.32,0,0,0-.81,0,7.52,7.52,0,0,0-3,.92,7.93,7.93,0,0,0-4.15,7v3.84h0a6,6,0,0,0,0,.74,4.34,4.34,0,0,0,.07.52l0,.2c0,.22.09.43.15.65v0a7.94,7.94,0,0,0,7.63,5.79h18.31a7.92,7.92,0,0,0,7.41-5.12h0a5.67,5.67,0,0,0,.22-.66v0c.06-.21.11-.42.15-.64,0-.07,0-.14,0-.2s.05-.34.07-.51,0-.51,0-.76h0v-3.84A8,8,0,0,0,267.89,172.05Z" transform="translate(-223.97 -126.4)" style="fill:#000"/></svg>