<svg xmlns="http://www.w3.org/2000/svg" viewBox="0 0 205.48 180.63">
  <path d="M417.68,326.13l-46.24-79.34a10.8,10.8,0,0,0-9.37-5.38H270.15a10.86,10.86,0,0,0-9.4,5.43L215.07,326a10.84,10.84,0,0,0,0,10.77l45,79.75a10.87,10.87,0,0,0,9.45,5.5h92.92a10.77,10.77,0,0,0,9.4-5.43l45.85-79.75A10.84,10.84,0,0,0,417.68,326.13Zm-48.57,21.23a13.43,13.43,0,0,1-13.43,13.43h-9.1a4.65,4.65,0,0,0-2,5.51,26.28,26.28,0,0,0,4.27,7.83,2.32,2.32,0,0,1-.18,3.16,2.24,2.24,0,0,1-2,.51c-6.65-1.54-17.42-5.37-20-14.23l-.25-.12a6.78,6.78,0,0,0-2.6-2.66H277.08a13.43,13.43,0,0,1-13.43-13.43V304.6a13.43,13.43,0,0,1,13.43-13.43h19.31v20.75a5.6,5.6,0,0,0-2.81,4.86,5.68,5.68,0,1,0,11.33.86,4.12,4.12,0,0,0,0-.86,5.61,5.61,0,0,0-2.8-4.86V291.17h11.43v40.11a5.67,5.67,0,1,0,5.71,0V291.17h11.37v20.95a5.72,5.72,0,1,0,5.72,0V291.17h19.34a13.43,13.43,0,0,1,13.43,13.43Z" transform="translate(-213.64 -241.41)" />
</svg>
