<svg xmlns="http://www.w3.org/2000/svg" viewBox="0 0 66.66 54.79">
  <path d="M312.84,237.56H300.61v13.25a3.61,3.61,0,1,1-3.61,0V237.56h-7.18v25.36a3.56,3.56,0,1,1-3.62,0V237.56H279v13.12a3.55,3.55,0,0,1,1.77,3.07,2.53,2.53,0,0,1,0,.55,3.59,3.59,0,1,1-7.16-.55,3.54,3.54,0,0,1,1.78-3.07V237.56H263.16a8.49,8.49,0,0,0-8.49,8.49v27a8.49,8.49,0,0,0,8.49,8.49h29.55a4.29,4.29,0,0,1,1.65,1.68l.16.07c1.61,5.61,8.42,8,12.62,9a1.45,1.45,0,0,0,1.3-.32,1.48,1.48,0,0,0,.11-2,16.54,16.54,0,0,1-2.7-4.95,2.92,2.92,0,0,1,1.24-3.48h5.75a8.49,8.49,0,0,0,8.49-8.49v-27A8.49,8.49,0,0,0,312.84,237.56Z" transform="translate(-254.67 -237.56)" style="fill: #010101"/>
</svg>
