<svg xmlns="http://www.w3.org/2000/svg" viewBox="0 0 85.48 75.17">
  <g>
    <path d="M319,268.26l-19.22-33a4.52,4.52,0,0,0-3.9-2.24H257.69a4.52,4.52,0,0,0-3.91,2.26l-19,32.93a4.54,4.54,0,0,0,0,4.47l18.74,33.18a4.52,4.52,0,0,0,3.92,2.29l38.65,0A4.5,4.5,0,0,0,300,306l19.07-33.17A4.51,4.51,0,0,0,319,268.26Zm-56.32,23.81h-2.43c-1.54,0-2.85-.56-2.85-2.1V261.58a2.73,2.73,0,0,0-1.22-2.27,2.4,2.4,0,0,1-1.12-2v-4c0-1.5,1.22-2,2.73-2h4.88a5.17,5.17,0,0,0-.25,1.58v37.66A5.19,5.19,0,0,0,262.72,292.07ZM295,258.44v32a2.8,2.8,0,0,1-2.8,2.8H267.71a2.8,2.8,0,0,1-2.8-2.8V252.82a2.8,2.8,0,0,1,2.8-2.8H292.2a2.8,2.8,0,0,1,2.8,2.8Z" transform="translate(-234.18 -233.04)"/>
    <path d="M286.45,266.33a3.8,3.8,0,0,0-2.16-.66h-8.92a2.61,2.61,0,0,0-.4,0,3.12,3.12,0,0,0-.75.15,3.56,3.56,0,0,0-.7.29,3.89,3.89,0,0,0-2,3.4v1.87h0c0,.12,0,.24,0,.36l0,.25s0,.07,0,.1,0,.21.07.32h0a3.86,3.86,0,0,0,2,2.4v6.09a1.75,1.75,0,0,0,.88,3.26,1.75,1.75,0,0,0,1.76-1.75,1.74,1.74,0,0,0-.87-1.51v-5.67h3.54v11.6a1.76,1.76,0,1,0,1.77,0v-11.6h3.55v5.67a1.75,1.75,0,0,0,.88,3.26,1.75,1.75,0,0,0,1.76-1.75,1.74,1.74,0,0,0-.87-1.51v-6.08a3.87,3.87,0,0,0,1.87-2.09h0a3,3,0,0,0,.11-.32v0a2.81,2.81,0,0,0,.08-.31.34.34,0,0,0,0-.1,1.87,1.87,0,0,0,0-.25c0-.12,0-.24,0-.37h0v-1.87A3.85,3.85,0,0,0,286.45,266.33Z" transform="translate(-234.18 -233.04)"/>
    <path d="M275.4,260.35a1.1,1.1,0,0,0,0,.18l0,.19a2,2,0,0,0,.05.24.24.24,0,0,0,0,.08,4.43,4.43,0,0,0,2.73,3.07h0a3.31,3.31,0,0,0,.56.17h0a4.46,4.46,0,0,0,1,.11,4.53,4.53,0,0,0,1-.11h0a3.62,3.62,0,0,0,.56-.17h0a4.44,4.44,0,0,0,2.63-2.74h0l.07-.25c0-.05,0-.09,0-.14s0-.15,0-.22a1.55,1.55,0,0,0,0-.21,1.1,1.1,0,0,1,0-.18c0-.13,0-.27,0-.41a5.27,5.27,0,0,0,0-.56.77.77,0,0,1,0-.15l-.09-.42,0-.13c-.06-.17-.12-.34-.19-.5a.36.36,0,0,0,0-.09c-.06-.13-.13-.26-.2-.39l-.08-.13c-.08-.13-.17-.25-.26-.37l-.05-.06a3.33,3.33,0,0,0-.36-.39l-.09-.09-.33-.27-.1-.08c-.15-.1-.3-.2-.46-.29a4.55,4.55,0,0,0-1.76-.51l-.35,0-.35,0-.27,0h0a4.5,4.5,0,0,0-2.06.85l0,0a4.16,4.16,0,0,0-.79.78l0,0a3.51,3.51,0,0,0-.27.4.22.22,0,0,0,0,.08,4.34,4.34,0,0,0-.42,1,.5.5,0,0,0,0,.13c0,.13-.06.26-.08.4a.77.77,0,0,0,0,.15,3.39,3.39,0,0,0,0,.55h0C275.38,260.09,275.39,260.22,275.4,260.35Z" transform="translate(-234.18 -233.04)"/>
  </g>
</svg>
