<svg xmlns="http://www.w3.org/2000/svg" viewBox="0 0 49.11 53.26">
  <path d="M257.59,301.36v46.37a6.63,6.63,0,0,0,.3,1.95h-3c-1.9,0-3.51-.69-3.51-2.58v-35a3.34,3.34,0,0,0-1.5-2.79,3,3,0,0,1-1.37-2.47v-5c0-1.86,1.5-2.5,3.36-2.5h6A6.63,6.63,0,0,0,257.59,301.36Z" transform="translate(-248.53 -297.92)"/>
  <path d="M294.19,297.92H264a3.44,3.44,0,0,0-3.44,3.44v46.37a3.44,3.44,0,0,0,3.44,3.44h30.16a3.44,3.44,0,0,0,3.45-3.44V301.36A3.44,3.44,0,0,0,294.19,297.92Zm-20.66,11.55a1.11,1.11,0,0,1,0-.19c0-.17.07-.34.11-.5a.94.94,0,0,1,0-.16,5.27,5.27,0,0,1,.52-1.22l.06-.1a5.25,5.25,0,0,1,.33-.49.1.1,0,0,0,0-.05,5.57,5.57,0,0,1,1-1l0,0a5.42,5.42,0,0,1,2.54-1h0l.33,0,.43,0,.43,0a5.64,5.64,0,0,1,2.17.64,4.73,4.73,0,0,1,.56.35l.13.1c.14.11.28.22.4.33l.12.11c.15.15.3.31.44.48l.06.07c.11.15.22.3.32.46l.09.16c.1.16.18.32.26.48a.54.54,0,0,0,.05.11,4.57,4.57,0,0,1,.22.62.94.94,0,0,1,0,.16,4.64,4.64,0,0,1,.11.51l0,.19a5.34,5.34,0,0,1,.05.69,4.36,4.36,0,0,1,0,.51,1.49,1.49,0,0,1,0,.21c0,.09,0,.18,0,.26l-.06.28a.94.94,0,0,0,0,.16,3,3,0,0,1-.1.32h0a5.48,5.48,0,0,1-3.25,3.37l0,0a5,5,0,0,1-.69.2h0a5.41,5.41,0,0,1-1.21.14,5.34,5.34,0,0,1-1.21-.14h0a5,5,0,0,1-.69-.2l0,0a5.49,5.49,0,0,1-3.37-3.78.36.36,0,0,1,0-.1,1.36,1.36,0,0,1-.06-.29,2.23,2.23,0,0,1,0-.23,1.79,1.79,0,0,1,0-.23,3.87,3.87,0,0,1,0-.48h0A4.91,4.91,0,0,1,273.53,309.47Zm15.68,14.77h0a3.39,3.39,0,0,1,0,.45c0,.11,0,.21,0,.31s0,.08,0,.12l-.09.39v0c0,.13-.08.26-.13.39h0a4.74,4.74,0,0,1-2.31,2.57V336a2.16,2.16,0,0,1-1.09,4,2.16,2.16,0,0,1-2.16-2.16,2.14,2.14,0,0,1,1.07-1.86v-7h-4.36v14.28a2.16,2.16,0,1,1-2.18,0V329h-4.36v7a2.14,2.14,0,0,1,1.07,1.86,2.17,2.17,0,1,1-3.25-1.86v-7.5a4.73,4.73,0,0,1-2.44-3v0c0-.13-.07-.26-.09-.39s0-.08,0-.12a2.91,2.91,0,0,1,0-.31c0-.14,0-.29,0-.44h0v-2.3a4.76,4.76,0,0,1,2.5-4.19,4.26,4.26,0,0,1,.85-.36,4.79,4.79,0,0,1,.93-.19,3.93,3.93,0,0,1,.49,0h11a4.75,4.75,0,0,1,4.76,4.76Z" transform="translate(-248.53 -297.92)"/>
</svg>
