<svg xmlns="http://www.w3.org/2000/svg" viewBox="0 0 85.48 75.17"><path d="M376.68,265.78l-19.23-33a4.5,4.5,0,0,0-3.9-2.24H315.32a4.49,4.49,0,0,0-3.9,2.26l-19,32.93a4.51,4.51,0,0,0,0,4.48l18.74,33.17a4.49,4.49,0,0,0,3.92,2.29l38.65,0a4.5,4.5,0,0,0,3.92-2.26l19.06-33.17A4.51,4.51,0,0,0,376.68,265.78Zm-60.5,15.53v-8.68h8.47a2,2,0,1,0,0-2h-8.47v-4h15.09a2,2,0,1,0,1.68-2.95,1.94,1.94,0,0,0-1.68,1H316.18v-4h8.47a2,2,0,1,0,1.69-2.95,2,2,0,0,0-1.69,1h-8.47v-10a2.54,2.54,0,0,1,2.54-2.54h26.54a2.54,2.54,0,0,1,2.53,2.54v32.48a2.54,2.54,0,0,1-2.53,2.54H318.72A2.54,2.54,0,0,1,316.18,281.31Zm36.75,5.28a2.54,2.54,0,0,1-2.54,2.54H323.85a2.54,2.54,0,0,1-2.54-2.54V286h23.95a4.73,4.73,0,0,0,4.73-4.73V251.58h.4a2.54,2.54,0,0,1,2.54,2.53Z" transform="translate(-291.82 -230.56)"/></svg>