<svg xmlns="http://www.w3.org/2000/svg" viewBox="0 0 53.26 49.11"><path d="M265.24,226.09H311.6a6.27,6.27,0,0,1,1.95.31v-3c0-1.89-.68-3.51-2.58-3.51H276a3.33,3.33,0,0,1-2.79-1.51,3,3,0,0,0-2.48-1.37h-5c-1.86,0-2.49,1.5-2.49,3.36v6A6.27,6.27,0,0,1,265.24,226.09Z" transform="translate(-261.79 -217.03)"/><path d="M311.6,229.09H265.24a3.44,3.44,0,0,0-3.45,3.45V262.7a3.44,3.44,0,0,0,3.45,3.44h13.53V253.83a2.68,2.68,0,1,1,2.7,0v12.31h5.4V244.78a2.65,2.65,0,0,1-1.33-2.29,2.68,2.68,0,1,1,5.36,0,2.65,2.65,0,0,1-1.33,2.29v21.36H295V253.83a2.68,2.68,0,1,1,2.7,0v12.31H311.6a3.44,3.44,0,0,0,3.45-3.44V232.54A3.44,3.44,0,0,0,311.6,229.09Z" transform="translate(-261.79 -217.03)"/></svg>