<svg xmlns="http://www.w3.org/2000/svg" viewBox="0 0 97.65 86.6">
  <path d="M287.62,233.7H246.38a7.59,7.59,0,0,0-6.57,3.79L219.19,273.2a7.64,7.64,0,0,0,0,7.6l20.62,35.71a7.59,7.59,0,0,0,6.57,3.79h14.8V303.92l-7.79-7.79c-1.2.86-5.69,4.17-10.56-2,3.09-2,5.42-2,7.12-1.41L243,285.78c-2.1-.34-4.6-1.78-5.6-6.58,4.88-.53,7,1.42,8,3.31l15.75,15.76V290l-18.72-18.73c-2.1-.27-4.62-1.63-5.81-6.33a9.94,9.94,0,0,1,5.16.37,9.25,9.25,0,0,1,2.85-4.92c3.35,4,2.62,7,1.43,8.86l2.92,2.92,7.11-7.12-5.39-5.39a.71.71,0,0,0,.15-.08c-1.76-1.22-3.42-3.6-2.21-8.4,4.65,1.67,5.71,4.37,5.74,6.51l4.54,4.53,5.58-5.57c-1.73-1.16-4.92-4.08-1.64-10.09,3,2,4,4.12,4.1,5.92a9.27,9.27,0,0,1,4.63-3.27c1.51,5.62-1,8-3,9L251.84,275l13.34,13.34v32h4.3V293.37l6.56-6.55-4.73-4.73a3.28,3.28,0,0,1-2.54-.45,3.61,3.61,0,0,1-1.77-2.86,3.55,3.55,0,1,1,7.1-.16,3.43,3.43,0,0,1-.05.56l4.81,4.81,3.48-3.48-10.59-10.59a3.33,3.33,0,0,1-2.6-.9,3.65,3.65,0,0,1-1.15-3.34,3.55,3.55,0,1,1,6.9,1.67s0,0,0,0l1.37,1.36,10-10a3.39,3.39,0,0,1-.18-2.74,3.55,3.55,0,1,1,3.91,4.66l-10.91,10.92,6.09,6.1,8.49-8.49a3.22,3.22,0,0,1,.26-2.83,3.64,3.64,0,0,1,2.92-1.89,3.55,3.55,0,1,1,.16,7.1h-.06L273.48,295v9.91l15-15a3.42,3.42,0,0,1,.23-3,3.46,3.46,0,0,1,2.23-1.71,3.55,3.55,0,1,1,.91,7l-18.34,18.33v9.71h14.14a7.59,7.59,0,0,0,6.57-3.79l20.62-35.71a7.64,7.64,0,0,0,0-7.6l-20.62-35.71A7.59,7.59,0,0,0,287.62,233.7Z" transform="translate(-218.17 -233.7)" />
</svg>
