<svg xmlns="http://www.w3.org/2000/svg" viewBox="0 0 85.48 75.17">
    <path d="M316.56,281.16l-19.22-33a4.52,4.52,0,0,0-3.9-2.24H255.21a4.51,4.51,0,0,0-3.91,2.26l-19,32.93a4.54,4.54,0,0,0,0,4.47L251,318.77a4.51,4.51,0,0,0,3.92,2.3l38.65,0a4.52,4.52,0,0,0,3.92-2.26l19.07-33.17A4.51,4.51,0,0,0,316.56,281.16Zm-36-19.38a2,2,0,0,1,1,3.72v4.86a7.12,7.12,0,0,1,3.25-.78A7.26,7.26,0,1,1,283.53,284a9.34,9.34,0,0,0,.51-3,9.46,9.46,0,0,0-2.44-6.34h0a9.4,9.4,0,0,0-2-1.7h0a6.32,6.32,0,0,0-.56-.33,6,6,0,0,1,.56-.67V265.5a2,2,0,0,1,1-3.72ZM278.73,275l.17.13c.19.14.36.29.53.44l.15.14a7,7,0,0,1,.59.63l.07.1a6.14,6.14,0,0,1,.43.61l.13.21c.12.21.23.42.33.64,0,.05.05.09.07.14a8,8,0,0,1,.29.82,1.66,1.66,0,0,1,.06.21,5.47,5.47,0,0,1,.14.68,2.34,2.34,0,0,1,0,.26,6.73,6.73,0,0,1,.06.91q0,.33,0,.66l0,.29-.06.34c0,.13-.05.25-.07.37l-.06.22-.12.42h0a7.25,7.25,0,0,1-4.3,4.46l-.05,0a7.49,7.49,0,0,1-.92.28h0a7.2,7.2,0,0,1-3.2,0h0a7.49,7.49,0,0,1-.92-.28l0,0a7.25,7.25,0,0,1-4.46-5l0-.13c0-.13-.06-.26-.08-.39s0-.2,0-.31l0-.29c0-.21,0-.43,0-.65h0a6.69,6.69,0,0,1,.06-.9l0-.25c0-.22.09-.44.14-.65l.06-.22a7,7,0,0,1,.68-1.61l.08-.13a7.49,7.49,0,0,1,.45-.65l0-.07a7.38,7.38,0,0,1,1.29-1.27l.05,0a7.2,7.2,0,0,1,3.35-1.39h0l.44-.05.57,0,.57,0a7.14,7.14,0,0,1,2.87.84A7.25,7.25,0,0,1,278.73,275Zm-4.19-20a2,2,0,0,1,1,3.72v12.73a8.53,8.53,0,0,0-2,0V258.74a2,2,0,0,1,1-3.72ZM264,269.58a7.09,7.09,0,0,1,3.46.89v-5a2,2,0,1,1,2,0v6.6c.14.17.29.34.42.52l-.42.25h0a9.4,9.4,0,0,0-2,1.7h0a9.43,9.43,0,0,0-1.94,9.36,7.61,7.61,0,0,1-1.52.16,7.26,7.26,0,0,1,0-14.51Zm-7.27,32.22a6.31,6.31,0,0,1-6.31-6.3v-3.05a6.31,6.31,0,0,1,6.31-6.3h9.9a9.49,9.49,0,0,0,1.58,1.83h-1a8.56,8.56,0,0,0-8.55,8.55v3a8.23,8.23,0,0,0,.31,2.23Zm31.37-2.23h0q0,.3,0,.6l-.06.41c0,.05,0,.11,0,.16s-.08.34-.13.51v0a4.56,4.56,0,0,1-.18.52h0a6.3,6.3,0,0,1-5.89,4.08H267.27a6.32,6.32,0,0,1-6.07-4.6v0a4.7,4.7,0,0,1-.12-.51l0-.16-.06-.41a5.68,5.68,0,0,1,0-.59h0v-3a6.32,6.32,0,0,1,3.3-5.55,7.52,7.52,0,0,1,1.13-.48,7.25,7.25,0,0,1,1.23-.25c.22,0,.43,0,.65,0h14.54a6.31,6.31,0,0,1,6.31,6.31Zm10.31-4.07a6.3,6.3,0,0,1-6.3,6.3h-2.08a8.23,8.23,0,0,0,.31-2.23v-3a8.56,8.56,0,0,0-8.55-8.55h-.95a9.8,9.8,0,0,0,1.57-1.83h9.7a6.3,6.3,0,0,1,6.3,6.3Z" transform="translate(-231.7 -245.94)"/>
 </svg>